<svg width="24" height="24" viewBox="0 0 24 24" fill="none" xmlns="http://www.w3.org/2000/svg">
<path d="M19.0523 16.8755C23.9729 12.7084 19.2778 7.03869 13.8129 8.15612C12.6642 6.56185 10.8195 5.3923 8.76576 5.42128C5.44972 5.2543 2.23432 8.33699 2.98646 11.7333C3.18182 12.6898 3.64008 13.5215 4.23683 14.2831C4.27304 14.5159 4.03678 14.7719 3.97716 15.0097C3.68405 15.7362 3.34485 16.4507 3.13454 17.2068C3.1258 17.2526 3.17207 17.2842 3.20193 17.2409C7.44846 13.9033 4.09557 15.924 9.35332 15.3611C10.2915 17.1176 12.2621 18.0715 14.191 18.2191C15.3373 18.311 16.4462 18.1478 17.5119 17.7096C17.9969 17.8135 18.4394 18.2235 18.9097 18.4273C19.3352 18.6449 19.7505 18.9092 20.2194 19.0196C19.7844 18.3907 19.4163 17.7171 19.0245 17.0602C18.9634 16.9544 18.967 16.9576 19.0523 16.8755ZM9.12525 15.0495C8.50605 15.1839 7.85832 15.2202 7.22886 15.1804C6.99384 15.1737 6.76099 15.1477 6.53035 15.102C6.53026 15.1021 6.53026 15.1022 6.53016 15.1022C6.18176 15.1077 5.81358 14.8994 5.48215 14.9694C4.82366 15.6672 4.07036 16.2822 3.38008 16.9562C3.65305 16.4496 3.89156 15.9256 4.14566 15.4098C4.14746 15.4016 4.14916 15.3933 4.15091 15.3851C4.31678 15.0573 4.44885 14.7096 4.62047 14.3864C4.65589 14.341 4.64403 14.3059 4.61886 14.2651C4.1803 13.6424 3.73171 13.0143 3.50313 12.278C1.81953 6.68725 9.4554 3.6133 12.9664 7.71834C13.0218 7.80744 13.4622 8.26634 13.2888 8.27089C12.5073 8.47499 11.7773 8.79368 11.1123 9.25437C9.27379 10.4483 8.24017 12.8911 9.16725 14.9683C9.18988 15.0226 9.17719 15.0374 9.12525 15.0495ZM18.7031 16.7631C18.6696 16.8238 18.5351 16.882 18.5802 16.9653C18.8455 17.4148 19.122 17.8584 19.4407 18.2728C19.5303 18.3813 19.6199 18.4897 19.7095 18.5982C19.706 18.6023 19.7024 18.6063 19.6989 18.6103C19.2805 18.3876 17.7973 17.1825 17.4616 17.3437C16.1222 17.892 14.5949 18.0383 13.1858 17.6927C6.36921 15.8003 8.95809 8.26169 15.2603 8.39201C15.3206 8.39334 15.3808 8.39472 15.4411 8.39605C16.1116 8.43189 16.7854 8.55765 17.4204 8.78236C17.4764 8.77928 17.5124 8.82694 17.5625 8.83462C21.2948 10.271 21.8167 14.3046 18.7031 16.7631Z" fill="#58454D"/>
<path d="M13.2451 12.7778C13.2501 13.1132 12.7231 13.1132 12.7281 12.7778C12.7232 12.4423 13.2501 12.4423 13.2451 12.7778Z" fill="#EFE9E0"/>
<path d="M15.4034 12.8545C15.4083 13.1899 14.8813 13.1899 14.8863 12.8545C14.8814 12.519 15.4083 12.519 15.4034 12.8545Z" fill="#EFE9E0"/>
<path d="M17.4712 12.8973C17.4761 13.2327 16.9492 13.2327 16.9541 12.8972C16.9493 12.5618 17.4762 12.5618 17.4712 12.8973Z" fill="#EFE9E0"/>
<path d="M12.961 12.3832C12.4448 12.3901 12.5143 13.1942 13.0029 13.1775C13.5286 13.1747 13.4675 12.3598 12.961 12.3832ZM13.0002 12.9867C12.7441 12.9941 12.688 12.5729 12.9666 12.5688C13.222 12.5543 13.2739 12.9893 13.0002 12.9867Z" fill="#58454D"/>
<path d="M15.1536 12.4683C14.673 12.4569 14.6239 13.2498 15.1315 13.2406C15.6142 13.2463 15.6655 12.468 15.1536 12.4683ZM15.1268 13.0566C14.8638 13.0487 14.9103 12.6397 15.1593 12.6483C15.4193 12.6527 15.3748 13.0686 15.1268 13.0566Z" fill="#58454D"/>
<path d="M17.2045 12.5308C16.7218 12.5225 16.7249 13.2621 17.2052 13.2532C17.6879 13.2617 17.6848 12.5245 17.2045 12.5308ZM17.2137 13.0851C16.954 13.0884 16.9442 12.7033 17.2098 12.7095C17.4703 12.7099 17.4807 13.089 17.2137 13.0851Z" fill="#58454D"/>
<path d="M7.01494 10.1776C6.54546 10.1729 6.54311 10.9265 7.02013 10.9249C7.50148 10.9342 7.49748 10.1715 7.01494 10.1776ZM7.02188 10.7652C6.78245 10.765 6.77247 10.3628 7.02253 10.3696C7.26324 10.37 7.27185 10.7699 7.02188 10.7652Z" fill="#58454D"/>
<path d="M9.09992 10.4257C8.62653 10.268 8.3877 10.9788 8.91615 11.0574C9.30149 11.1626 9.52537 10.5294 9.09992 10.4257ZM9.02655 10.8775C8.91762 10.9051 8.78118 10.823 8.78827 10.7233C8.85492 10.3839 9.43829 10.7197 9.02655 10.8775Z" fill="#58454D"/>
</svg>
