<svg width="24" height="24" viewBox="0 0 24 24" fill="none" xmlns="http://www.w3.org/2000/svg">
<path d="M19.0523 17.1472C23.9729 12.9801 19.2778 7.31042 13.8129 8.42785C12.6642 6.83358 10.8195 5.66403 8.76576 5.69301C5.44972 5.52603 2.23432 8.60872 2.98646 12.005C3.18182 12.9616 3.64008 13.7932 4.23683 14.5549C4.27304 14.7876 4.03678 15.0437 3.97716 15.2814C3.68405 16.0079 3.34485 16.7224 3.13454 17.4785C3.1258 17.5243 3.17207 17.5559 3.20193 17.5127C7.44846 14.175 4.09557 16.1958 9.35332 15.6329C10.2915 17.3893 12.2621 18.3432 14.191 18.4908C15.3373 18.5827 16.4462 18.4196 17.5119 17.9814C17.9969 18.0853 18.4394 18.4953 18.9097 18.699C19.3352 18.9166 19.7505 19.1809 20.2194 19.2913C19.7844 18.6624 19.4163 17.9888 19.0245 17.3319C18.9634 17.2262 18.967 17.2294 19.0523 17.1472Z" fill="#58454D"/>
<path d="M3.25659 17.3116L4.43456 14.5348C2.87622 12.9502 2.31635 9.29023 4.7705 7.31481C7.67066 4.84502 12.1239 5.84874 13.6093 8.65713C18.8344 7.41679 23.9673 12.7667 18.8066 17.228L20.0042 19.1943L17.6354 17.8243C15.35 18.8353 10.7339 18.4022 9.39318 15.4472C8.86482 15.6231 6.21839 15.7137 5.64551 15.4051L3.3629 17.3205L3.25659 17.3116Z" fill="#F6AF52"/>
<path d="M16.8608 17.8704C17.1442 17.7555 17.544 17.0282 17.7859 17.334C18.3067 17.8382 18.924 18.2562 19.537 18.6319C19.631 18.7457 19.725 18.8596 19.8191 18.9734C19.8153 18.9776 19.8116 18.9819 19.8079 18.9861C19.1478 18.527 18.464 18.1036 17.7812 17.6795C17.481 17.5135 17.1712 17.8428 16.8608 17.8704Z" fill="#F19437"/>
<path d="M12.3587 7.27244C10.8876 6.53405 9.14838 5.98554 7.49376 6.39292C4.78312 6.99648 2.73285 9.82351 3.37676 12.5808C1.74477 7.34443 8.48101 4.04646 12.3587 7.27244Z" fill="#F8C06F"/>
<path d="M20.7949 12.96C20.6648 11.1247 19.2092 9.64237 17.5396 9.02882C17.4883 9.02095 17.4513 8.97215 17.3941 8.97532C16.6528 8.73115 15.8519 8.54347 15.0723 8.59412C18.084 9.17846 21.6897 11.7611 20.0784 15.1871C19.7817 15.9488 19.0854 16.445 18.707 17.144C19.9259 16.1016 20.9645 14.6395 20.7949 12.96Z" fill="#F8C06F"/>
<path d="M13.2061 18.089C12.0755 16.9884 11.1282 15.6512 10.8234 14.0759C10.5586 12.657 10.5763 11.0935 11.4823 9.89719C11.6275 9.73067 11.7584 9.54653 11.9129 9.3847C7.49985 11.7597 8.52731 17.1402 13.2854 18.2044C13.2689 18.1591 13.236 18.1247 13.2061 18.089Z" fill="#F29335"/>
<path d="M13.4664 8.41921C13.2533 8.10756 13.0259 7.79564 12.7358 7.55133C12.1833 8.36461 11.2434 8.76182 10.5713 9.45693C10.0941 9.94154 9.71928 10.5323 9.38992 11.1098C9.36071 11.104 9.34226 11.1183 9.33256 11.1421C9.26751 11.2494 9.16673 11.3012 9.04749 11.3104C8.64716 11.3242 8.52332 10.9153 8.85729 10.6871C8.8324 10.6421 8.89339 10.6405 8.89694 10.6096C8.26016 10.6128 8.51776 11.7141 9.12823 11.4916C9.15145 11.4783 9.18366 11.4946 9.15895 11.5221C8.65834 12.5961 8.11678 13.7242 7.2247 14.5291C6.70564 14.9648 5.98583 14.9088 5.35268 14.9851C5.07144 14.98 4.91012 15.1666 4.72317 15.3475C4.48972 15.4739 4.29491 15.6569 4.06997 15.7944C4.06818 15.8029 4.06639 15.8114 4.06459 15.8198C3.80405 16.3485 3.5596 16.8856 3.27979 17.405C3.94909 16.7663 4.64134 16.1574 5.30406 15.5143C5.31128 15.5171 5.31851 15.5199 5.32564 15.5228C5.33318 15.4233 5.4502 15.4489 5.44892 15.3586C5.79258 15.3176 6.15391 15.5025 6.5088 15.5045C6.50889 15.5044 6.50889 15.5043 6.50903 15.5043C6.8975 15.6127 9.09419 15.6613 9.22878 15.3447C8.27847 13.2151 9.32129 10.734 11.2059 9.51006C11.8876 9.03777 12.6359 8.71108 13.4368 8.50187C13.509 8.48297 13.5089 8.48306 13.4664 8.41921Z" fill="#F29335"/>
<path d="M7.64371 15.3867C7.64404 15.3868 7.64436 15.3868 7.64473 15.3868C7.64385 15.3854 7.64325 15.3851 7.64371 15.3867Z" fill="#58454D"/>
<path d="M19.0523 17.1472C23.9729 12.9801 19.2778 7.31042 13.8129 8.42785C12.6642 6.83358 10.8195 5.66403 8.76576 5.69301C5.44972 5.52603 2.23432 8.60872 2.98646 12.005C3.18182 12.9616 3.64008 13.7932 4.23683 14.5549C4.27304 14.7876 4.03678 15.0437 3.97716 15.2814C3.68405 16.0079 3.34485 16.7224 3.13454 17.4785C3.1258 17.5243 3.17207 17.5559 3.20193 17.5127C7.44846 14.175 4.09557 16.1958 9.35332 15.6329C10.2915 17.3893 12.2621 18.3432 14.191 18.4908C15.3373 18.5827 16.4462 18.4196 17.5119 17.9814C17.9969 18.0853 18.4394 18.4953 18.9097 18.699C19.3352 18.9166 19.7505 19.1809 20.2194 19.2913C19.7844 18.6624 19.4163 17.9888 19.0245 17.3319C18.9634 17.2262 18.967 17.2294 19.0523 17.1472ZM9.12525 15.3212C8.50605 15.4556 7.85832 15.492 7.22886 15.4521C6.99384 15.4455 6.76099 15.4194 6.53035 15.3737C6.53026 15.3738 6.53026 15.3739 6.53016 15.3739C6.18176 15.3795 5.81358 15.1712 5.48215 15.2411C4.82366 15.939 4.07036 16.5539 3.38008 17.228C3.65305 16.7213 3.89156 16.1973 4.14566 15.6815C4.14746 15.6733 4.14916 15.665 4.15091 15.6568C4.31678 15.329 4.44885 14.9813 4.62047 14.6581C4.65589 14.6127 4.64403 14.5776 4.61886 14.5368C4.1803 13.9142 3.73171 13.286 3.50313 12.5498C1.81953 6.95898 9.4554 3.88503 12.9664 7.99007C13.0218 8.07917 13.4622 8.53806 13.2888 8.54262C12.5073 8.74672 11.7773 9.06541 11.1123 9.5261C9.27379 10.72 8.24017 13.1628 9.16725 15.24C9.18988 15.2944 9.17719 15.3091 9.12525 15.3212ZM18.7031 17.0349C18.6696 17.0955 18.5351 17.1537 18.5802 17.237C18.8455 17.6865 19.122 18.1301 19.4407 18.5445C19.5303 18.653 19.6199 18.7615 19.7095 18.8699C19.706 18.874 19.7024 18.878 19.6989 18.882C19.2805 18.6593 17.7973 17.4542 17.4616 17.6155C16.1222 18.1637 14.5949 18.3101 13.1858 17.9645C6.36921 16.072 8.95809 8.53342 15.2603 8.66374C15.3206 8.66507 15.3808 8.66645 15.4411 8.66778C16.1116 8.70362 16.7854 8.82938 17.4204 9.05409C17.4764 9.05101 17.5124 9.09866 17.5625 9.10635C21.2948 10.5427 21.8167 14.5763 18.7031 17.0349Z" fill="#58454D"/>
<path d="M8.99223 6.13184C8.80634 6.13193 8.62046 6.13197 8.43457 6.13207C8.61926 6.11597 8.80841 6.1121 8.99223 6.13184Z" fill="#F6AF52"/>
<path d="M5.3782 15.3887C5.36371 15.3093 5.37802 15.2928 5.44366 15.3128C5.4248 15.3407 5.40713 15.3695 5.3782 15.3887Z" fill="#F29335"/>
<path d="M8.38161 6.13469C8.33133 6.15718 8.27862 6.14219 8.22705 6.14472C8.27779 6.12949 8.32972 6.1329 8.38161 6.13469Z" fill="#F6AF52"/>
<path d="M15.596 8.70834C15.5442 8.70608 15.4915 8.7203 15.4409 8.69886C15.4929 8.69647 15.5451 8.6927 15.596 8.70834Z" fill="#F6AF52"/>
<path d="M7.28128 10.8391C7.2862 11.1745 6.75927 11.1745 6.76419 10.8391C6.75932 10.5037 7.2862 10.5037 7.28128 10.8391Z" fill="#EFE9E0"/>
<path d="M9.23001 11.0076C9.23493 11.343 8.708 11.343 8.71292 11.0075C8.708 10.6721 9.23493 10.6721 9.23001 11.0076Z" fill="#EFE9E0"/>
<path d="M13.2451 13.0495C13.2501 13.3849 12.7231 13.3849 12.7281 13.0495C12.7232 12.7141 13.2501 12.714 13.2451 13.0495Z" fill="#EFE9E0"/>
<path d="M15.4034 13.1262C15.4083 13.4616 14.8813 13.4616 14.8863 13.1262C14.8814 12.7908 15.4083 12.7908 15.4034 13.1262Z" fill="#EFE9E0"/>
<path d="M17.4712 13.169C17.4761 13.5044 16.9492 13.5044 16.9541 13.169C16.9493 12.8336 17.4762 12.8336 17.4712 13.169Z" fill="#EFE9E0"/>
<path d="M12.961 12.655C12.4448 12.6618 12.5143 13.4659 13.0029 13.4492C13.5286 13.4464 13.4675 12.6316 12.961 12.655ZM13.0002 13.2584C12.7441 13.2659 12.688 12.8446 12.9666 12.8405C13.222 12.826 13.2739 13.261 13.0002 13.2584Z" fill="#58454D"/>
<path d="M15.1536 12.7401C14.673 12.7286 14.6239 13.5215 15.1315 13.5123C15.6142 13.518 15.6655 12.7397 15.1536 12.7401ZM15.1268 13.3283C14.8638 13.3204 14.9103 12.9114 15.1593 12.92C15.4193 12.9245 15.3748 13.3403 15.1268 13.3283Z" fill="#58454D"/>
<path d="M17.2045 12.8026C16.7218 12.7942 16.7249 13.5338 17.2052 13.5249C17.6879 13.5335 17.6848 12.7963 17.2045 12.8026ZM17.2137 13.3569C16.954 13.3601 16.9442 12.975 17.2098 12.9812C17.4703 12.9816 17.4807 13.3607 17.2137 13.3569Z" fill="#58454D"/>
<path d="M7.01494 10.4494C6.54546 10.4446 6.54311 11.1983 7.02013 11.1966C7.50148 11.2059 7.49748 10.4432 7.01494 10.4494ZM7.02188 11.0369C6.78245 11.0368 6.77247 10.6345 7.02253 10.6413C7.26324 10.6417 7.27185 11.0416 7.02188 11.0369Z" fill="#58454D"/>
<path d="M9.09992 10.6975C8.62653 10.5397 8.3877 11.2505 8.91615 11.3291C9.30149 11.4343 9.52537 10.8011 9.09992 10.6975ZM9.02655 11.1492C8.91762 11.1769 8.78118 11.0948 8.78827 10.995C8.85492 10.6556 9.43829 10.9914 9.02655 11.1492Z" fill="#58454D"/>
</svg>
