<svg width="20" height="20" viewBox="0 0 20 20" fill="none" xmlns="http://www.w3.org/2000/svg">
<g clip-path="url(#clip0_129_13)">
<path d="M2.923 14.537C2.14802 14.5362 1.405 14.228 0.857004 13.68C0.309007 13.132 0.000794177 12.389 0 11.614V2.923C0.000794177 2.14802 0.309007 1.405 0.857004 0.857004C1.405 0.309007 2.14802 0.000794177 2.923 0H11.614C12.389 0.000794177 13.132 0.309007 13.68 0.857004C14.228 1.405 14.5362 2.14802 14.537 2.923V3.466C14.537 3.66491 14.458 3.85568 14.3173 3.99633C14.1767 4.13698 13.9859 4.216 13.787 4.216C13.5881 4.216 13.3973 4.13698 13.2567 3.99633C13.116 3.85568 13.037 3.66491 13.037 3.466V2.923C13.0367 2.54568 12.8867 2.18389 12.6199 1.91708C12.3531 1.65027 11.9913 1.50026 11.614 1.5H2.923C2.54568 1.50026 2.18389 1.65027 1.91708 1.91708C1.65027 2.18389 1.50026 2.54568 1.5 2.923V11.614C1.50026 11.9913 1.65027 12.3531 1.91708 12.6199C2.18389 12.8867 2.54568 13.0367 2.923 13.037C3.12191 13.037 3.31268 13.116 3.45333 13.2567C3.59398 13.3973 3.673 13.5881 3.673 13.787C3.673 13.9859 3.59398 14.1767 3.45333 14.3173C3.31268 14.458 3.12191 14.537 2.923 14.537Z" fill="black"/>
<path d="M8.21289 5.46289H17.2499C17.979 5.46368 18.678 5.75367 19.1936 6.26922C19.7091 6.78478 19.9991 7.48379 19.9999 8.21289V17.2499C19.9991 17.979 19.7091 18.678 19.1936 19.1936C18.678 19.7091 17.979 19.9991 17.2499 19.9999H8.21289C7.48379 19.9991 6.78478 19.7091 6.26922 19.1936C5.75367 18.678 5.46368 17.979 5.46289 17.2499V8.21289C5.46368 7.48379 5.75367 6.78478 6.26922 6.26922C6.78478 5.75367 7.48379 5.46368 8.21289 5.46289ZM17.2499 18.4999C17.5813 18.4996 17.8991 18.3678 18.1335 18.1335C18.3678 17.8991 18.4996 17.5813 18.4999 17.2499V8.21289C18.4996 7.88145 18.3678 7.56366 18.1335 7.3293C17.8991 7.09494 17.5813 6.96316 17.2499 6.96289H8.21289C7.88145 6.96316 7.56366 7.09494 7.3293 7.3293C7.09494 7.56366 6.96316 7.88145 6.96289 8.21289V17.2499C6.96316 17.5813 7.09494 17.8991 7.3293 18.1335C7.56366 18.3678 7.88145 18.4996 8.21289 18.4999H17.2499Z" fill="black"/>
</g>
<defs>
<clipPath id="clip0_129_13">
<rect width="22" height="22" fill="white"/>
</clipPath>
</defs>
</svg>
