<svg width="30" height="30" viewBox="0 0 30 30" fill="none" xmlns="http://www.w3.org/2000/svg">
<path opacity="0.15" d="M5 6.25C5 5.55965 5.55965 5 6.25 5H23.75C24.4404 5 25 5.55965 25 6.25V23.75C25 24.4404 24.4404 25 23.75 25H6.25C5.55965 25 5 24.4404 5 23.75V6.25Z" fill="#5E59EA"/>
<path d="M5.03366 22.9113C5.22981 24.0963 6.25937 25 7.5 25H22.5C23.8807 25 25 23.8807 25 22.5V17.7376M5.03366 22.9113C5.01152 22.7775 5 22.6401 5 22.5V7.5C5 6.11929 6.11929 5 7.5 5H22.5C23.8807 5 25 6.11929 25 7.5V17.7376M5.03366 22.9113L9.80953 18.1354C10.6596 17.3916 11.9027 17.3101 12.8425 17.9367L13.479 18.361C14.3848 18.9649 15.5774 18.9131 16.4275 18.233L19.7376 15.5849C20.5814 14.9099 21.7566 14.8569 22.6535 15.4355C22.7529 15.4996 22.8414 15.579 22.925 15.6626L25 17.7376M13.75 11.25C13.75 12.6307 12.6307 13.75 11.25 13.75C9.86929 13.75 8.75 12.6307 8.75 11.25C8.75 9.86929 9.86929 8.75 11.25 8.75C12.6307 8.75 13.75 9.86929 13.75 11.25Z" stroke="#5E59EA" stroke-linecap="round" stroke-linejoin="round"/>
</svg>
