<svg width="24" height="24" viewBox="0 0 24 24" fill="none" xmlns="http://www.w3.org/2000/svg">
<g clip-path="url(#clip0_13_1968)">
<path d="M3.30303 13.5891C3.30151 13.5889 3.2999 13.5891 3.29834 13.5891C3.30004 13.5903 3.30128 13.5916 3.30322 13.5928C3.30317 13.5916 3.30312 13.5903 3.30303 13.5891Z" fill="#58454D"/>
<path d="M3.4708 17.2241C3.47075 17.2247 3.47075 17.2253 3.4707 17.226C3.47084 17.2259 3.47107 17.226 3.47121 17.2259C3.47103 17.2253 3.47098 17.2247 3.4708 17.2241Z" fill="#58454D"/>
<path d="M3.27532 12.8564C3.27521 12.8538 3.27513 12.8512 3.27498 12.8486C3.27464 12.8515 3.27427 12.8543 3.27393 12.8572C3.27438 12.8569 3.27487 12.8566 3.27532 12.8564Z" fill="#58454D"/>
<path d="M6.35672 11.9321C6.35663 11.934 6.35654 11.936 6.35645 11.9379C6.35709 11.9375 6.35764 11.937 6.35833 11.9365C6.35769 11.9351 6.35746 11.9335 6.35672 11.9321Z" fill="#58454D"/>
<path d="M13.3687 5.33136C13.3674 5.35201 13.3664 5.37271 13.3668 5.39355C13.3671 5.37281 13.3678 5.35206 13.3687 5.33136Z" fill="#58454D"/>
<path d="M13.3706 5.31319C13.3707 5.31107 13.3708 5.30895 13.3709 5.30688C13.3708 5.30895 13.3708 5.31107 13.3706 5.31319Z" fill="#58454D"/>
<path d="M21.4863 11.6487C22.0064 8.90659 17.6291 10.4177 16.1419 10.3168C14.3978 8.91823 16.8507 5.08753 14.6524 3.72004C14.1901 3.4325 13.7143 3.44156 13.2308 3.65597C12.7911 3.85708 13.1325 4.44574 13.0656 4.81747C13.2727 8.01566 10.201 10.3842 7.27535 10.8142C7.13873 10.8581 7.15138 10.2951 7.03136 10.1554C6.5318 9.22224 5.1041 9.61619 4.23866 9.66596C2.55211 9.81357 2.41494 10.7816 2.48449 12.2505C2.53334 14.3871 2.5574 16.5316 2.807 18.6562C2.91082 19.7084 3.33278 20.5568 4.53904 20.4409C5.47564 20.2983 7.22599 20.685 7.44021 19.4425C9.23329 20.4309 18.3314 20.5382 19.1489 18.2587C19.2626 18.0073 18.9842 17.6378 19.2415 17.4712C20.1081 17.0999 20.5141 16.2094 20.1233 15.3313C20.0424 15.0828 20.4043 15.034 20.5453 14.9002C21.2795 14.447 21.4083 13.5115 21.0715 12.7655C20.7913 12.2599 21.4046 12.142 21.4863 11.6487ZM7.22166 18.2149C7.13454 18.7998 7.34324 19.8026 6.575 19.9483C5.88812 20.0974 5.1834 20.0931 4.48545 20.1406C3.98303 20.1829 3.45652 19.9865 3.32951 19.4558C2.89564 17.5968 2.98023 15.6463 2.82356 13.7547C2.76334 11.725 2.19373 9.98584 4.92277 9.93552C6.43253 9.86054 6.85463 9.73937 6.90983 11.4396C7.02 12.0661 7.03996 12.7222 7.07787 13.3612C7.16104 14.9756 7.21297 16.5981 7.22166 18.2149ZM21.0143 11.8039C20.821 12.0733 20.5661 12.3452 20.7213 12.6994C21.0188 13.3708 21.0108 14.2249 20.3292 14.6568C19.3042 15.1062 20.2352 15.6852 19.8977 16.4186C19.7494 17.0618 18.7895 17.0697 18.8499 17.6824C18.8809 17.9213 18.8959 18.1586 18.7871 18.3897C17.4547 20.0425 9.54029 20.1048 7.56607 19.1073C7.56956 16.7054 7.48124 13.9691 7.32677 11.5425C8.3206 11.4427 9.29392 11.0964 10.1233 10.539C10.1814 10.5083 10.1549 10.4576 10.097 10.4931C9.24888 10.9346 8.19084 11.3475 7.25998 11.2716C10.643 10.6449 13.9052 7.96497 13.3298 4.19559C13.2367 3.86398 13.506 3.86614 13.759 3.81835C16.935 4.34702 14.007 8.67664 15.7683 10.3833C15.5662 10.4091 15.3799 10.4311 15.1916 10.432C14.7888 10.4515 14.8341 10.5102 15.1972 10.5514C15.2005 10.5486 15.2037 10.5488 15.2067 10.552C15.9161 10.6053 16.6264 10.5579 17.3344 10.5367H17.3344C17.5389 10.5149 17.7451 10.5149 17.9508 10.5066C18.4921 10.4748 19.0324 10.3994 19.5742 10.3864H19.5742C20.0535 10.3443 20.6403 10.3411 20.9819 10.7314C20.9821 10.7311 20.9821 10.731 20.9823 10.7307V10.7307C20.9823 10.7307 20.9823 10.7307 20.9823 10.7307C21.2465 11.0198 21.2024 11.4824 21.0143 11.8039Z" fill="#58454D"/>
<path d="M16.9201 10.5535C16.9049 10.5539 16.8901 10.5555 16.8755 10.5576C16.8903 10.556 16.9051 10.5544 16.9201 10.5535Z" fill="#58454D"/>
<path d="M6.49228 14.2628C6.49246 13.6248 6.37429 12.308 6.31541 11.8181C6.3132 11.0726 6.01586 10.6251 5.21615 10.7377C3.42744 10.81 3.33677 11.1339 3.44652 12.8351C3.52431 14.7741 3.58149 16.701 3.75569 18.6326C3.76406 19.1948 4.27301 18.7875 4.40172 19.0281C4.4053 19.0986 4.35227 19.1187 4.29734 19.1194C4.05736 19.1194 3.69571 19.1739 3.62491 18.871C3.53011 18.424 3.53875 17.9608 3.48765 17.5073C3.42523 15.8832 3.31676 14.2699 3.27246 12.6419C3.2921 11.3314 3.1179 10.6905 4.66511 10.5697C6.13582 10.3866 6.48621 10.6698 6.53768 12.1593C6.63814 13.8746 6.70411 15.5924 6.75209 17.3102C6.71832 18.0079 7.00343 19.3672 5.87491 19.0175C5.95173 18.85 6.23937 18.96 6.39057 18.8825C6.76685 18.7244 6.55116 17.9911 6.59665 17.6531C6.58635 16.5226 6.56266 15.3913 6.49228 14.2628Z" fill="#58454D"/>
<path d="M5.12019 18.4836C4.44892 18.4669 4.43401 19.5824 5.10648 19.5789C5.77652 19.581 5.81535 18.4862 5.12019 18.4836ZM5.10156 19.3735C4.66424 19.3749 4.7078 18.6766 5.12051 18.684C5.53198 18.6805 5.51892 19.3912 5.10156 19.3735Z" fill="#58454D"/>
</g>
<defs>
<clipPath id="clip0_13_1968">
<rect width="23" height="23" fill="white" transform="translate(0.5 0.475281)"/>
</clipPath>
</defs>
</svg>
