<svg width="24" height="24" viewBox="0 0 24 24" fill="none" xmlns="http://www.w3.org/2000/svg">
<path d="M21.4863 11.9204C22.0064 9.17832 17.6291 10.6895 16.1419 10.5885C14.3978 9.18996 16.8507 5.35926 14.6524 3.99177C14.1901 3.70423 13.7143 3.71329 13.2308 3.9277C12.7911 4.12881 13.1325 4.71747 13.0656 5.0892C13.2727 8.28739 10.201 10.656 7.27535 11.0859C7.13873 11.1298 7.15138 10.5668 7.03136 10.4271C6.5318 9.49397 5.1041 9.88792 4.23866 9.93769C2.55211 10.0853 2.41494 11.0534 2.48449 12.5222C2.53334 14.6588 2.5574 16.8034 2.807 18.9279C2.91082 19.9801 3.33278 20.8286 4.53904 20.7126C5.47564 20.57 7.22599 20.9568 7.44021 19.7142C9.23329 20.7026 18.3314 20.8099 19.1489 18.5304C19.2626 18.279 18.9842 17.9095 19.2415 17.743C20.1081 17.3717 20.5141 16.4811 20.1233 15.603C20.0424 15.3545 20.4043 15.3057 20.5453 15.1719C21.2795 14.7187 21.4083 13.7832 21.0715 13.0373C20.7913 12.5316 21.4046 12.4138 21.4863 11.9204Z" fill="#58454D"/>
<path d="M7.35437 19.4937C8.04809 20.5844 18.5895 20.144 18.7635 18.9554C19.2209 18.1624 18.905 17.9469 19.1707 17.6083C19.4364 17.2697 20.1201 17.1056 20.1066 16.4284C20.0931 15.7513 19.9163 15.418 20.0149 15.2973C21.6496 14.5338 20.9524 13.8043 20.8591 12.6014C23.2835 9.46823 17.0096 10.7564 16.0635 10.7499C14.673 10.0114 15.8195 6.61338 15.435 5.44999C15.1579 4.64973 14.8562 4.01019 14.1114 3.94179C13.3665 3.87339 13.1572 4.15725 13.1572 4.15725C13.7395 8.13078 10.7902 10.6796 7.06006 11.3291C7.13706 11.6333 7.45722 18.6281 7.35437 19.4937Z" fill="#EDD5B8"/>
<path d="M13.1694 4.35858C13.1694 4.35858 14.2833 8.03384 12.4992 10.2509C10.7151 12.468 8.57099 11.9947 8.05786 13.0624C7.54473 14.1301 8.30501 14.9025 8.77132 15.7475C9.23766 16.5926 8.48253 17.9062 9.76915 18.5216C11.0558 19.137 17.3823 19.819 17.9117 18.8291C18.441 17.8392 17.7886 17.2616 18.5149 16.9502C19.2413 16.6388 19.9267 16.37 19.761 15.9119C19.5953 15.4537 19.004 15.4715 19.215 15.0086C19.426 14.5457 20.7135 14.3179 20.6777 13.6007C20.6418 12.8836 20.0398 12.8874 20.1561 12.3392C20.2725 11.7909 21.4979 11.512 21.2626 11.0205C21.0273 10.5289 21.5601 11.2163 21.3549 11.8217C21.1497 12.427 20.7083 12.543 20.9059 13.0083C21.1035 13.4735 21.1554 14.3433 20.9063 14.6574C20.6572 14.9715 20.0373 15.1554 19.9856 15.3867C19.9338 15.6179 20.2525 16.4293 19.9598 16.9188C19.6671 17.4083 19.072 17.5674 18.995 17.8239C18.918 18.0804 19.1331 18.8094 18.569 19.1554C17.6205 19.9545 8.81092 20.7002 7.32149 19.4937C7.42825 18.5022 7.23745 12.5505 7.12061 11.3292C10.2105 10.861 13.9826 8.14654 13.1694 4.35858Z" fill="#E4C39D"/>
<path d="M15.4547 7.34814C15.1288 7.94854 14.4821 9.94195 15.3281 10.7728L16.0636 10.6829C16.0636 10.6829 15.2285 10.1486 15.2853 9.34896C15.342 8.54934 15.4547 7.34814 15.4547 7.34814Z" fill="#E4C39D"/>
<path d="M2.89003 10.6278C2.56297 10.765 2.27353 19.77 3.83091 20.553C4.57501 20.6914 6.83167 20.5197 7.12925 20.1657C7.58732 19.7576 7.48694 10.6519 6.67371 10.2078C6.21606 9.9876 3.37882 10.3278 2.89003 10.6278Z" fill="#9CC4CF"/>
<path d="M7.23468 13.6329C7.23468 13.6329 6.45705 14.6021 6.03638 15.8949C5.61571 17.1877 5.90118 17.6008 4.9838 17.7687C3.1985 18.1157 3.00916 16.8441 2.66895 15.9162C2.66895 15.9162 2.93285 19.4244 3.22564 19.9682C3.51843 20.512 4.4962 20.6916 5.48244 20.5454C6.46868 20.3991 6.96576 20.4925 7.23468 19.8508C7.50359 19.2089 7.23468 13.6329 7.23468 13.6329Z" fill="#7EADBB"/>
<path d="M3.43572 15.2537C3.43572 15.2537 3.49727 11.5677 3.95129 11.4215C5.73954 11.0674 5.93596 11.0495 6.49233 12.5657C6.49233 12.5657 6.48037 11.2035 5.96392 10.9756C5.44748 10.7477 4.03091 10.9648 3.65886 11.2275C3.01114 11.6677 3.52487 14.7551 3.43572 15.2537Z" fill="#B1D1DA"/>
<path d="M2.71217 15.0994C2.71217 15.0994 3.32627 13.8867 3.12769 13.3683C2.92915 12.85 2.73775 11.9474 3.29826 11.3266C3.85872 10.7058 5.77775 10.4212 6.23416 10.6597C6.69057 10.8982 7.12067 11.9407 7.12067 11.9407C7.12067 11.9407 7.06377 10.3999 6.53472 10.1796C6.00568 9.95938 3.25014 10.0759 2.89001 10.6278C2.52983 11.1796 2.71217 15.0994 2.71217 15.0994Z" fill="#B1D1DA"/>
<path d="M3.30303 13.8609C3.30151 13.8606 3.2999 13.8608 3.29834 13.8609C3.30004 13.8623 3.30128 13.8639 3.30322 13.8654C3.30317 13.8638 3.30312 13.8623 3.30303 13.8609Z" fill="#58454D"/>
<path d="M3.4708 17.4958C3.47075 17.4964 3.47075 17.4971 3.4707 17.4977C3.47084 17.4977 3.47107 17.4977 3.47121 17.4977C3.47103 17.497 3.47098 17.4964 3.4708 17.4958Z" fill="#58454D"/>
<path d="M3.27563 13.1281C3.27549 13.1255 3.2754 13.1229 3.27521 13.1204C3.2748 13.1232 3.27434 13.1261 3.27393 13.1289C3.27448 13.1286 3.27508 13.1284 3.27563 13.1281Z" fill="#58454D"/>
<path d="M6.35672 12.2038C6.35663 12.2054 6.35654 12.207 6.35645 12.2086C6.35709 12.2083 6.35764 12.2078 6.35833 12.2075C6.35769 12.2063 6.35746 12.205 6.35672 12.2038Z" fill="#58454D"/>
<path d="M13.3692 5.60309C13.3675 5.62374 13.3664 5.64444 13.3668 5.66528C13.3672 5.64453 13.3681 5.62379 13.3692 5.60309Z" fill="#58454D"/>
<path d="M13.3706 5.58492C13.3707 5.5828 13.3709 5.58068 13.371 5.57861C13.3708 5.58068 13.3708 5.5828 13.3706 5.58492Z" fill="#58454D"/>
<path d="M21.4863 11.9204C22.0064 9.17832 17.6291 10.6895 16.1419 10.5885C14.3978 9.18996 16.8507 5.35926 14.6524 3.99177C14.1901 3.70423 13.7143 3.71329 13.2308 3.9277C12.7911 4.12881 13.1325 4.71747 13.0656 5.0892C13.2727 8.28739 10.201 10.656 7.27535 11.0859C7.13873 11.1298 7.15138 10.5668 7.03136 10.4271C6.5318 9.49397 5.1041 9.88792 4.23866 9.93769C2.55211 10.0853 2.41494 11.0534 2.48449 12.5222C2.53334 14.6588 2.5574 16.8034 2.807 18.9279C2.91082 19.9801 3.33278 20.8286 4.53904 20.7126C5.47564 20.57 7.22599 20.9568 7.44021 19.7142C9.23329 20.7026 18.3314 20.8099 19.1489 18.5304C19.2626 18.279 18.9842 17.9095 19.2415 17.743C20.1081 17.3717 20.5141 16.4811 20.1233 15.603C20.0424 15.3545 20.4043 15.3057 20.5453 15.1719C21.2795 14.7187 21.4083 13.7832 21.0715 13.0373C20.7913 12.5316 21.4046 12.4138 21.4863 11.9204ZM7.22166 18.4866C7.13454 19.0715 7.34324 20.0743 6.575 20.2201C5.88812 20.3691 5.1834 20.3649 4.48545 20.4123C3.98303 20.4547 3.45652 20.2582 3.32951 19.7275C2.89564 17.8685 2.98023 15.918 2.82356 14.0264C2.76334 11.9967 2.19373 10.2576 4.92277 10.2072C6.43253 10.1323 6.85463 10.0111 6.90983 11.7114C7.02 12.3378 7.03996 12.9939 7.07787 13.6329C7.16104 15.2474 7.21297 16.8698 7.22166 18.4866ZM21.0143 12.0756C20.821 12.3451 20.5661 12.617 20.7213 12.9711C21.0188 13.6425 21.0108 14.4967 20.3292 14.9285C19.3042 15.378 20.2352 15.9569 19.8977 16.6903C19.7494 17.3336 18.7895 17.3415 18.8499 17.9541C18.8809 18.193 18.8959 18.4303 18.7871 18.6614C17.4547 20.3143 9.54029 20.3766 7.56607 19.379C7.56956 16.9772 7.48124 14.2408 7.32677 11.8143C8.3206 11.7144 9.29392 11.3681 10.1233 10.8107C10.1814 10.78 10.1549 10.7293 10.097 10.7649C9.24888 11.2063 8.19084 11.6193 7.25998 11.5434C10.643 10.9167 13.9052 8.2367 13.3298 4.46732C13.2367 4.13571 13.506 4.13787 13.759 4.09008C16.935 4.61875 14.007 8.94837 15.7683 10.6551C15.5662 10.6809 15.3799 10.7028 15.1916 10.7037C14.7888 10.7232 14.8341 10.782 15.1972 10.8231C15.2005 10.8203 15.2037 10.8205 15.2067 10.8237C15.9161 10.8771 16.6264 10.8296 17.3344 10.8084H17.3344C17.5389 10.7866 17.7451 10.7867 17.9508 10.7783C18.4921 10.7466 19.0324 10.6712 19.5742 10.6581H19.5742C20.0535 10.616 20.6403 10.6128 20.9819 11.0031C20.9821 11.0029 20.9821 11.0027 20.9823 11.0024V11.0024C20.9823 11.0024 20.9823 11.0024 20.9823 11.0024C21.2465 11.2915 21.2024 11.7541 21.0143 12.0756Z" fill="#58454D"/>
<path d="M16.9201 10.8253C16.9049 10.8257 16.8901 10.8276 16.8755 10.8302C16.8903 10.8283 16.9051 10.8263 16.9201 10.8253Z" fill="#58454D"/>
<path d="M9.37561 12.5532C9.73883 12.5803 9.52139 12.9983 9.36471 13.1403C9.16217 13.378 8.99188 13.6346 8.87835 13.9261C8.7605 14.1288 8.77917 14.4751 8.54927 14.5801C8.44848 14.6009 8.36927 14.5483 8.30468 14.4779C7.65084 13.7015 8.53749 12.6562 9.37561 12.5532Z" fill="#E4C39D"/>
<path d="M13.4638 6.04541C13.5018 6.1755 13.4689 6.3163 13.4785 6.45122C13.4509 6.31676 13.4299 6.18208 13.4638 6.04541Z" fill="#E5C6A1"/>
<path d="M6.49228 14.5345C6.49246 13.8966 6.37429 12.5798 6.31541 12.0898C6.3132 11.3443 6.01586 10.8969 5.21615 11.0094C3.42744 11.0817 3.33677 11.4057 3.44652 13.1068C3.52431 15.0458 3.58149 16.9728 3.75569 18.9044C3.76406 19.4666 4.27301 19.0592 4.40171 19.2998C4.4053 19.3703 4.35227 19.3904 4.29734 19.3911C4.05736 19.3911 3.69571 19.4456 3.62491 19.1427C3.53011 18.6957 3.53875 18.2326 3.48765 17.7791C3.42523 16.1549 3.31676 14.5416 3.27246 12.9136C3.2921 11.6031 3.1179 10.9623 4.66511 10.8415C6.13582 10.6583 6.48621 10.9415 6.53768 12.431C6.63814 14.1463 6.70411 15.8641 6.75208 17.5819C6.71832 18.2797 7.00343 19.639 5.87491 19.2892C5.95173 19.1217 6.23937 19.2317 6.39057 19.1542C6.76685 18.9961 6.55116 18.2628 6.59665 17.9248C6.58635 16.7943 6.56266 15.663 6.49228 14.5345Z" fill="#58454D"/>
<path d="M6.23447 10.6598C6.16699 10.6549 6.10378 10.6314 6.03906 10.6146C6.10871 10.6102 6.17481 10.6211 6.23447 10.6598Z" fill="#ACCED7"/>
<path d="M6.66998 11.1405C6.63521 11.0953 6.61055 11.045 6.59473 10.9902C6.64059 11.0299 6.66179 11.082 6.66998 11.1405Z" fill="#ACCED7"/>
<path d="M5.96371 10.6144C5.90879 10.6073 5.8511 10.6305 5.79834 10.5995C5.85497 10.5876 5.91012 10.5926 5.96371 10.6144Z" fill="#ACCED7"/>
<path d="M5.10726 10.6295C5.0545 10.6605 4.99682 10.6373 4.94189 10.6444C4.99461 10.6134 5.05229 10.6367 5.10726 10.6295Z" fill="#ACCED7"/>
<path d="M4.89675 10.6445C4.86487 10.6721 4.8266 10.6545 4.7915 10.6595C4.82398 10.636 4.85751 10.6205 4.89675 10.6445Z" fill="#ACCED7"/>
<path d="M9.10498 12.3131C9.9972 11.8882 10.9876 11.658 11.7653 11.0204C11.0193 11.6848 10.0104 11.9371 9.10498 12.3131Z" fill="#E5C6A1"/>
<path d="M12.0508 10.765C12.2282 10.5492 12.4125 10.3201 12.5916 10.1035C12.4439 10.3462 12.2605 10.5729 12.0508 10.765Z" fill="#E5C6A1"/>
<path d="M11.7651 11.0205C11.8537 10.9383 11.9313 10.844 12.0359 10.78C11.955 10.8706 11.8755 10.963 11.7651 11.0205Z" fill="#E5C6A1"/>
<path d="M5.48273 19.3005C5.498 19.798 4.74995 19.8122 4.75101 19.3178C4.74521 18.8181 5.49129 18.7679 5.48273 19.3005Z" fill="#DB5143"/>
<path d="M5.12019 18.7553C4.44892 18.7386 4.43401 19.8542 5.10648 19.8506C5.77652 19.8527 5.81535 18.7579 5.12019 18.7553ZM5.10156 19.6453C4.66424 19.6466 4.7078 18.9484 5.12051 18.9557C5.53198 18.9522 5.51892 19.6629 5.10156 19.6453Z" fill="#58454D"/>
</svg>
