<svg width="23" height="23" viewBox="0 0 23 23" fill="none" xmlns="http://www.w3.org/2000/svg">
<path d="M19.0165 17.2929C18.2563 16.5123 17.0875 16.5431 16.2407 17.1609C15.7944 17.2095 15.3705 16.9968 14.952 16.8731C12.7138 16.0336 10.4135 15.3477 8.2113 14.42C7.70396 14.2155 7.86427 13.9057 7.72209 13.4798C7.45634 12.9733 9.06501 11.9196 9.40734 11.4686C10.973 9.95236 12.5393 8.42677 14.1659 6.97873C14.7139 6.52871 15.3731 6.93798 15.9914 6.81874C18.6663 6.44131 18.5004 2.38154 15.7754 2.27109C14.0335 2.20573 13.1484 3.71558 13.3891 5.17917C13.4404 5.99958 12.5399 6.57982 12.0697 7.1711C10.5893 8.74417 9.02577 10.2355 7.48914 11.7529C7.29171 11.9454 7.08627 12.1304 6.82237 12.2339C5.51248 11.6029 3.91752 12.0232 3.47224 13.532C3.04113 14.8901 4.13165 16.3879 5.56064 16.3827C7.58836 16.305 6.39227 15.0836 8.96271 16.0327C10.9729 16.7718 13.0299 17.3957 14.994 18.2533C15.2589 18.373 15.5387 18.5545 15.57 18.8753C16.2231 22.5476 21.3541 20.1012 19.0165 17.2929Z" fill="#3F3756"/>
<path d="M13.5047 5.61901C13.6246 5.06434 13.3226 4.06076 13.7481 3.45126C14.1736 2.84176 14.8348 2.38176 15.5363 2.38176C17.1828 2.30834 18.0985 3.87441 17.6925 5.28555C17.5617 5.82136 16.9681 6.39526 16.4448 6.59076C15.9216 6.78626 14.8176 6.50451 14.5358 6.63101C12.405 8.06993 9.07911 11.7475 7.448 13.0863L6.896 12.3848C7.35692 11.9635 13.3022 6.61385 13.5047 5.61901Z" fill="#E06E3C"/>
<path d="M19.4246 18.6569C19.3825 21.1217 15.716 21.1214 15.6743 18.6568C15.7164 16.192 19.3829 16.1924 19.4246 18.6569Z" fill="#973678"/>
<path d="M7.74711 14.267L7.28711 15.555C7.81082 15.1016 16.0647 18.5979 15.6774 18.4453L16.1881 17.4027C15.7048 17.1757 8.59305 15.0706 7.74711 14.267Z" fill="#B13F4A"/>
<path d="M7.70711 14.1448C7.6601 16.8974 3.56564 16.897 3.51904 14.1447C3.56605 11.3922 7.66051 11.3926 7.70711 14.1448Z" fill="#C55847"/>
<path d="M7.87893 11.9023C9.15309 11.1527 10.281 10.0455 11.3484 9.00125C12.1792 8.20766 12.8118 7.24644 13.6027 6.41922C14.2524 5.69127 14.9048 5.37544 15.892 5.41049C16.9153 5.30961 17.6412 4.36836 17.4217 3.35181C18.3414 4.55116 17.4657 6.47654 15.9514 6.56652C15.3049 6.63069 14.5357 6.19842 14.0283 6.79652C12.5561 8.08557 11.0911 9.38692 9.70412 10.7688C8.9425 11.5145 8.06068 12.3237 7.35849 13.0317C6.82572 12.3486 6.94909 12.8994 7.87893 11.9023Z" fill="#D24C23"/>
<path d="M4.88064 12.2845C3.38522 13.8248 6.29873 16.6911 7.55011 14.7702C7.18275 16.0983 5.39128 16.6085 4.35996 15.7037C3.17726 14.809 3.4953 12.7963 4.88064 12.2845Z" fill="#AD382B"/>
<path d="M15.7933 18.2264C16.1868 19.9915 19.2453 19.9494 19.3287 18.0385C19.7989 19.2737 18.7046 20.6823 17.3855 20.4827C16.3234 20.4075 15.5049 19.2505 15.7933 18.2264Z" fill="#771F56"/>
<path d="M15.9399 17.464C15.9446 17.4646 16.0341 17.6852 16.0307 17.6903C15.8867 17.9052 15.7799 18.138 15.7217 18.3927C15.7144 18.4248 15.7045 18.4349 15.6778 18.4086C15.4661 18.2 15.1984 18.0887 14.9364 17.9708C14.2288 17.6609 8.56178 15.4355 7.32617 15.4526C7.5202 15.1491 7.70296 14.7415 7.75963 14.3762C7.86419 14.4782 7.86548 14.4914 7.98153 14.5635C7.98871 14.5756 8.05904 14.7296 8.06452 14.7422C8.27961 15.3314 9.82563 15.6974 10.4224 15.9693C13.8078 17.2957 15.3096 18.0406 15.9399 17.464Z" fill="#93262D"/>
<path d="M16.2604 2.54663C16.3457 3.13116 15.7438 3.6177 15.2077 3.67143C14.8305 3.66646 14.3171 3.44414 14.1938 3.07076C14.7391 2.55119 15.535 2.35716 16.2604 2.54663Z" fill="#E78757"/>
<path d="M7.60652 13.7161C7.57423 13.8516 7.33549 13.8167 7.22937 13.7691C6.70304 13.5196 6.25375 12.8869 6.42612 12.2964C7.02724 12.5308 7.47349 13.0894 7.60652 13.7161Z" fill="#D27562"/>
<path d="M16.0446 17.5445C15.7383 17.639 15.4421 17.4656 15.1535 17.3871C14.7777 17.2756 14.3931 17.1856 14.0213 17.0621C12.3932 16.5389 10.7439 15.8901 9.24121 15.1325C11.4985 15.9628 13.7652 16.7935 16.0446 17.5445Z" fill="#C15B64"/>
<path d="M17.3432 16.929C17.4966 17.4339 16.7219 17.6752 16.5322 17.2474C16.7749 17.0707 17.0422 16.957 17.3432 16.929Z" fill="#AD538E"/>
<path d="M16.2092 3.37144C16.5268 3.35815 16.4125 3.81212 16.2173 3.93025C15.7263 4.16397 15.8102 3.36528 16.2092 3.37144Z" fill="#E78757"/>
<path d="M6.25845 13.1331C6.22814 13.6996 5.50212 13.2665 5.69735 12.8941C5.86272 12.6 6.29236 12.8389 6.25845 13.1331Z" fill="#D27462"/>
<path d="M17.4409 17.5008C17.4414 17.4328 17.4735 17.4068 17.5565 17.4072C17.8687 17.4556 17.468 17.8647 17.4409 17.5008Z" fill="#AD528E"/>
<path d="M19.0165 17.2929C18.2563 16.5123 17.0875 16.5431 16.2407 17.1609C15.7944 17.2095 15.3705 16.9968 14.952 16.8731C12.7138 16.0336 10.4135 15.3477 8.2113 14.42C7.70396 14.2155 7.86427 13.9057 7.72209 13.4798C7.45634 12.9733 9.06501 11.9196 9.40734 11.4686C10.973 9.95236 12.5393 8.42677 14.1659 6.97873C14.7139 6.52871 15.3731 6.93798 15.9914 6.81874C18.6663 6.44131 18.5004 2.38154 15.7754 2.27109C14.0335 2.20573 13.1484 3.71558 13.3891 5.17917C13.4404 5.99958 12.5399 6.57982 12.0697 7.1711C10.5893 8.74417 9.02577 10.2355 7.48914 11.7529C7.29171 11.9454 7.08627 12.1304 6.82237 12.2339C5.51248 11.6029 3.91752 12.0232 3.47224 13.532C3.04113 14.8901 4.13165 16.3879 5.56064 16.3827C7.58836 16.305 6.39227 15.0836 8.96271 16.0327C10.9729 16.7718 13.0299 17.3957 14.994 18.2533C15.2589 18.373 15.5387 18.5545 15.57 18.8753C16.2231 22.5476 21.3541 20.1012 19.0165 17.2929ZM7.11921 12.4727C8.16465 11.7021 8.99693 10.6693 9.95516 9.79356C11.1142 8.62231 12.3106 7.47507 13.3552 6.19935C14.0812 5.21114 13.0418 4.19109 14.2783 3.07522C15.1229 2.24561 16.6372 2.4239 17.2795 3.41323C18.1797 4.58701 17.3225 6.47158 15.8404 6.55958C15.3739 6.62628 14.9171 6.38483 14.4536 6.4858C14.2579 6.53506 14.0982 6.6479 13.9582 6.78461C13.4598 7.23592 12.935 7.65594 12.4473 8.11953C11.1342 9.28885 9.88068 10.5193 8.61692 11.741C8.23738 12.1196 7.78897 12.4381 7.48312 12.8841C7.41628 12.9855 7.23458 12.5628 7.11769 12.5276C7.09649 12.5077 7.08453 12.4928 7.11921 12.4727ZM7.25923 15.1573C6.08292 17.0381 3.1673 15.7683 3.75086 13.6287C4.54625 11.1359 8.18931 12.2519 7.44328 14.7425C7.41264 14.8944 7.34139 15.0294 7.25923 15.1573ZM15.5816 18.2453C14.2131 17.359 12.5435 17.0218 11.0354 16.4212C9.85331 16.0546 8.69135 15.4103 7.43095 15.4278C7.62033 15.1385 7.74522 14.8309 7.80052 14.4829C7.90254 14.58 8.01616 14.6483 8.12942 14.7171C10.5991 15.7434 13.1604 16.5561 15.6773 17.4629C15.7531 17.469 15.8246 17.5022 15.9024 17.5046C15.9393 17.506 15.9524 17.5221 15.926 17.5606C15.7856 17.7655 15.6814 17.9874 15.6245 18.2301C15.6173 18.2607 15.6077 18.2704 15.5816 18.2453ZM19.0856 19.5527C18.1204 21.2452 15.5051 20.2364 15.9081 18.3316C16.2653 16.6717 18.6562 16.507 19.2049 18.1343C19.3737 18.5936 19.3098 19.1238 19.0856 19.5527Z" fill="#3F3756"/>
</svg>
