<svg width="23" height="24" viewBox="0 0 23 24" fill="none" xmlns="http://www.w3.org/2000/svg">
<path d="M19.0165 17.5604C18.2563 16.7677 17.0875 16.7991 16.2407 17.4264C15.7944 17.4758 15.3705 17.2598 14.952 17.1341C12.7138 16.2817 10.4135 15.5851 8.2113 14.6431C7.70396 14.4354 7.86427 14.1208 7.72209 13.6884C7.45634 13.174 9.06501 12.104 9.40734 11.646C10.973 10.1063 12.5393 8.55713 14.1659 7.08669C14.7139 6.62971 15.3731 7.04531 15.9914 6.92423C18.6663 6.54096 18.5004 2.41837 15.7754 2.30622C14.0335 2.23984 13.1484 3.77306 13.3891 5.25929C13.4404 6.09239 12.5399 6.68161 12.0697 7.28204C10.5893 8.87944 9.02577 10.3939 7.48914 11.9348C7.29171 12.1303 7.08627 12.318 6.82237 12.4232C5.51248 11.7824 3.91752 12.2092 3.47224 13.7413C3.04113 15.1205 4.13165 16.6414 5.56064 16.6361C7.58836 16.5573 6.39227 15.3169 8.96271 16.2807C10.9729 17.0313 13.0299 17.6648 14.994 18.5357C15.2589 18.6573 15.5387 18.8416 15.57 19.1674C16.2231 22.8964 21.3541 20.4121 19.0165 17.5604ZM7.11921 12.6657C8.16465 11.8831 8.99693 10.8343 9.95516 9.94508C11.1142 8.7557 12.3106 7.59071 13.3552 6.29526C14.0812 5.29175 13.0418 4.25592 14.2783 3.12279C15.1229 2.28034 16.6372 2.4614 17.2795 3.46602C18.1797 4.65797 17.3225 6.5717 15.8404 6.66106C15.3739 6.72879 14.9171 6.4836 14.4536 6.58613C14.2579 6.63616 14.0982 6.75074 13.9582 6.88957C13.4598 7.34786 12.935 7.77438 12.4473 8.24515C11.1342 9.43256 9.88068 10.682 8.61692 11.9227C8.23738 12.3071 7.78897 12.6305 7.48312 13.0835C7.41628 13.1864 7.23458 12.7572 7.11769 12.7214C7.09649 12.7012 7.08453 12.6861 7.11921 12.6657ZM7.25923 15.3918C6.08292 17.3017 3.1673 16.0123 3.75086 13.8395C4.54625 11.3082 8.18931 12.4414 7.44328 14.9706C7.41264 15.1248 7.34139 15.2619 7.25923 15.3918ZM15.5816 18.5276C14.2131 17.6275 12.5435 17.2852 11.0354 16.6753C9.85331 16.303 8.69135 15.6487 7.43095 15.6665C7.62033 15.3727 7.74522 15.0604 7.80052 14.7069C7.90254 14.8056 8.01616 14.8749 8.12942 14.9448C10.5991 15.987 13.1604 16.8123 15.6773 17.733C15.7531 17.7393 15.8246 17.773 15.9024 17.7755C15.9393 17.7768 15.9524 17.7932 15.926 17.8323C15.7856 18.0404 15.6814 18.2656 15.6245 18.5122C15.6173 18.5433 15.6077 18.5531 15.5816 18.5276ZM19.0856 19.8552C18.1204 21.5739 15.5051 20.5495 15.9081 18.6152C16.2653 16.9296 18.6562 16.7624 19.2049 18.4149C19.3737 18.8813 19.3098 19.4197 19.0856 19.8552Z" fill="#3F3756"/>
</svg>
